/* XPM */
static char *result[] = {
/* columns rows colors chars-per-pixel */
"64 64 256 2 ",
"   c black",
".  c #0000A8",
"X  c #00A800",
"o  c #00A8A8",
"O  c #A80000",
"+  c #A800A8",
"@  c #A85400",
"#  c #4C4436",
"$  c gray33",
"%  c #5454FC",
"&  c #524A42",
"*  c #5E5246",
"=  c #736352",
"-  c #685D4C",
";  c #FCFC54",
":  c gray99",
">  c #ECECEC",
",  c gainsboro",
"<  c #D0D0D0",
"1  c #C0C0C0",
"2  c #B4B4B4",
"3  c gray66",
"4  c #989898",
"5  c gray55",
"6  c #7C7C7C",
"7  c gray44",
"8  c #646464",
"9  c gray33",
"0  c #484848",
"q  c gray22",
"w  c #2C2C2C",
"e  c #202020",
"r  c #FC0000",
"t  c #EC0000",
"y  c #E00000",
"u  c #D40000",
"i  c #C80000",
"p  c #BC0000",
"a  c #B00000",
"s  c #A40000",
"d  c #980000",
"f  c #880000",
"g  c #7C0000",
"h  c #700000",
"j  c #640000",
"k  c #580000",
"l  c #4C0000",
"z  c #400000",
"x  c #FCD8D8",
"c  c #FCB8B8",
"v  c #FC9C9C",
"b  c #FC7C7C",
"n  c #FC5C5C",
"m  c #FC4040",
"M  c #FC2020",
"N  c #FC0000",
"B  c #FCA85C",
"V  c #FC9840",
"C  c #FC8820",
"Z  c #FC7800",
"A  c #E46C00",
"S  c #CC6000",
"D  c #B45400",
"F  c #9C4C00",
"G  c #FCFCD8",
"H  c #FCFCB8",
"J  c #FCFC9C",
"K  c #FCFC7C",
"L  c #FCF85C",
"P  c #FCF440",
"I  c #FCF420",
"U  c #FCF400",
"Y  c #E4D800",
"T  c #CCC400",
"R  c #B4AC00",
"E  c #9C9C00",
"W  c #848400",
"Q  c #706C00",
"!  c #585400",
"~  c #404000",
"^  c #849C7B",
"/  c #738C6B",
"(  c #6B7B63",
")  c #637352",
"_  c #5A6B52",
"`  c #525A4A",
"'  c #4A5242",
"]  c #425239",
"[  c #394A39",
"{  c #313931",
"}  c #313929",
"|  c #293129",
" . c #293121",
".. c #212921",
"X. c #182118",
"o. c #181818",
"O. c #00FC00",
"+. c #00EC00",
"@. c #00E000",
"#. c #00D400",
"$. c #04C800",
"%. c #04BC00",
"&. c #04B000",
"*. c #04A400",
"=. c #049800",
"-. c #048800",
";. c #047C00",
":. c #047000",
">. c #046400",
",. c #045800",
"<. c #044C00",
"1. c #044000",
"2. c #C8BFB2",
"3. c #A89A85",
"4. c #9A8C77",
"5. c #7CFCF8",
"6. c #5CFCFC",
"7. c #40FCFC",
"8. c #20FCFC",
"9. c #00FCFC",
"0. c #00E4E4",
"q. c #00CCCC",
"w. c #00B4B4",
"e. c #009C9C",
"r. c #008484",
"t. c #007070",
"y. c #005858",
"u. c #004040",
"i. c #94846B",
"p. c #8C7B67",
"a. c #847B63",
"s. c #81735D",
"d. c #7B6B5A",
"f. c #007CCC",
"g. c #006CB4",
"h. c #005C9C",
"j. c #736B5A",
"k. c #736B52",
"l. c #9C9CFC",
"z. c #7C80FC",
"x. c #5C60FC",
"c. c #4040FC",
"v. c #2024FC",
"b. c #0004FC",
"n. c #0000FC",
"m. c #0000EC",
"M. c #0000E0",
"N. c #0000D4",
"B. c #0000C8",
"V. c #0000BC",
"C. c #0000B0",
"Z. c #0000A4",
"A. c #000098",
"S. c #000088",
"D. c #00007C",
"F. c #000070",
"G. c #000064",
"H. c #000058",
"J. c #00004C",
"K. c #000040",
"L. c #282828",
"P. c #FCE034",
"I. c #FCD424",
"U. c #FCCC18",
"Y. c #FCC008",
"T. c #FCB400",
"R. c #B420FC",
"E. c #A800FC",
"W. c #9800E4",
"Q. c #8000CC",
"!. c #7400B4",
"~. c #60009C",
"^. c #500084",
"/. c #440070",
"(. c #340058",
"). c #280040",
"_. c #FCD8FC",
"`. c #FCB8FC",
"'. c #FC9CFC",
"]. c #FC7CFC",
"[. c #FC5CFC",
"{. c #FC40FC",
"}. c #FC20FC",
"|. c #FC00FC",
" X c #E000E4",
".X c #C800CC",
"XX c #B400B4",
"oX c #9C009C",
"OX c #840084",
"+X c #6C0070",
"@X c #580058",
"#X c #400040",
"$X c #FCE8DC",
"%X c #FCE0D0",
"&X c #FCD8C4",
"*X c #FCD4BC",
"=X c #FCCCB0",
"-X c #FCC4A4",
";X c #FCBC9C",
":X c #FCB890",
">X c #FCB080",
",X c #FCA470",
"<X c #FC9C60",
"1X c #F0945C",
"2X c #E88C58",
"3X c #DC8854",
"4X c #D08050",
"5X c #C87C4C",
"6X c #BC7848",
"7X c #B47044",
"8X c #A86840",
"9X c #A0643C",
"0X c #9C6038",
"qX c #905C34",
"wX c #885830",
"eX c #80502C",
"rX c #744C28",
"tX c #6C4824",
"yX c #5C4020",
"uX c #543C1C",
"iX c #483818",
"pX c #403018",
"aX c #382C14",
"sX c #28200C",
"dX c #600064",
"fX c #006464",
"gX c #006060",
"hX c #00001C",
"jX c #00002C",
"kX c #302410",
"lX c #480048",
"zX c #500050",
"xX c #000034",
"cX c gray11",
"vX c #4C4C4C",
"bX c gray36",
"nX c gray25",
"mX c gray19",
"MX c #343434",
"NX c #2E2B22",
"BX c #B8E8E8",
"VX c #9CDCDC",
"CX c #74C8C8",
"ZX c #48C0C0",
"AX c #20B4B4",
"SX c #20B0B0",
"DX c #00A4A4",
"FX c #009898",
"GX c #008C8C",
"HX c #008484",
"JX c #007C7C",
"KX c #007878",
"LX c #007474",
"PX c #007070",
"IX c #006C6C",
"UX c #980088",
/* pixels */
"aXaXaXaXaXL.w mXw aXaXaXpXpXaXw w w w w w aXL.aXw w w mXw aXaXaXpXpXaXw w w w w L.L.L.w pXaXL.w aXL.L.L.L.aXL.aXL.w aXL.aXaXaXaX",
"aXaXaXpXaXL.w w w aXaXaXaXw w L.w mXw w w aXaXaXw w w w w aXaXaXaXw w L.w mXw aXaXw L.aXaXL.L.w w w L.L.L.L.L.aXL.w w aXaXaXaXaX",
"L.w aXpXaXaXw aXpXaXaXaXw w w w mXmXpXaXaXaXaXaXw MXw aXpXaXaXaXw w w w mXmXpXpXpXmXw aXaXL.L.aXw w w L.L.L.aXaXw aXw aXL.L.L.L.",
"L.w pXpXaXpXpXpXpXpXaXaXw w w aXw pXpXpXw aXaXaXw mXpXpXpXpXaXaXw w w aXw pXpXpXpXmXpXaXaXaXaXaXw w w L.L.L.aXL.L.aXw L.L.L.L.L.",
"aXaXL.L.kXkXkXaXaXaXaXL.L.kXkXkXkXkXaXw L.kXkXkXe aXaXaXaXaXaXL.L.kXkXkXkXkXaXaXe e kXkXkXsXsXkXkXaXaXaXL.e e e e aXL.L.kXkXkXkX",
"sXsXcXcXcXsXcXsXsXsXsXcXcXcXsXcXcXcXsXsXcXcXcXsXcXsXsXsXsXsXsXcXcXcXsXcXcXcXsXsXcXcXsXsXcXcXcXcXsXsXsXsXsXsXcXcXcXsXcXcXcXsXcXcX",
"e mX0 q 0 0 0 0 0 vXvX0 0 0 0 & & 0 vXvX0 0 0 0 & & # & & vXmXe e mXvXvX& & vXvXvX$ $ vXvX0 0 vXvXvXvXvX& # # # nX0 0 0 0 0 mXe ",
"e mXvX0 vXvXvXvX0 0 0 0 vX$ $ $ & vX$ $ vXvX& & & & nXvXvXvXmXe e mXvXvXvXvX& * * $ $ $ $ & & * $ $ $ $ & & & & 0 vX& 0 0 & mXe ",
"e mXvXvXvXvXvXvXvX0 0 0 0 vXvXvX& vX* * * $ vXvXvX0 nX0 0 0 mXe e mXvX$ $ $ * * * $ $ $ $ * * * * $ $ $ $ $ & & & * vXvXvX$ mXe ",
"e mX$ vXvXvXvXvXvXvXvXvX0 vXvXvX$ $ - - $ $ $ $ vXnX# # # nXmXe e mX& * bXbXbX* $ $ $ vXvX& & vX- vXvXvXvX$ $ $ * * * vXvX* mXe ",
"e mX$ vX$ $ * $ vXvXvX& vX0 0 vXbX- = = bXbXbXbX* & # # # nXmXe e mX- $ bXbXbX$ $ $ $ $ vX# # vX$ $ $ $ $ $ $ $ - - * $ $ $ mXe ",
"e mXvXvXvXvX- $ $ $ $ vX& nXnXvX$ bXbXbXbXbX- - $ 0 q q q 0 mXe e mX= = = = bX$ vX$ $ $ 0 0 0 vXvX$ bXbXbX= j.j.= = $ $ $ $ mXe ",
"e mXvXvXvXvX& - - $ $ $ 0 nXnXvX$ bXbXbXbX= = = $ nXq q q 0 mXe e mX= bX= = bX$ vXvXvXvXq q q 0 & $ bXbX= bX= = bXbX* $ $ vXmXe ",
"e mXvXvXvXvX- * $ $ $ $ $ vXvX$ - - $ $ - = = = bX0 q 0 0 nXmXe e mXbXbXbXbX- $ vX$ $ $ nX0 0 vX0 vX$ $ - = = = bXbX$ * * $ mXe ",
"e mXvXvXvXvXvXvX$ - - $ * vXvX$ bXbX$ $ bXbXbXbXbX0 nX0 0 # mXe e mX$ $ $ $ & $ vX* * $ vX0 0 0 nXnX$ $ $ bX= = - $ $ vXvX* mXe ",
"e mXvXvX& & 0 vX& * * & * * * $ vX$ vXvX$ - - - * vX0 0 0 q mXe e mXvX& vXvX0 vX$ $ $ $ $ nXnXnX# # vXvX- $ $ $ $ $ $ $ $ * mXe ",
"e mX0 & 0 0 vX* * * * & 0 vXvX* vXvXvXvXvXvX$ $ vXvX& q q } mXe e mXnXnX0 0 nXnX& * * * * & & # nX# vXvX$ $ * * vX$ $ * * & mXe ",
"e mX& # # # vX* & & & & nX& & & 0 0 0 0 0 nXvXvX$ vX& q q MXmXe e mXnX0 vXvX& & vXvXvX$ * & & nX0 0 0 0 0 0 & & vX$ & & & & mXe ",
"e mX# & & & & & # & & & nX0 0 0 0 0 nXnXq q 0 0 $ vXvX0 0 q mXe e mX0 0 0 0 0 nX0 0 0 $ * & & nX0 vXvXvX0 0 vXvXvXvX0 0 0 nXmXe ",
"e mX& & # # & & 0 & & & nX0 0 nXq 0 & & q q 0 0 0 nX& vXvX& mXe e mX0 nXq q 0 0 nX& & * vX& & 0 vXvX0 0 0 0 vXvXvX# nXq q # mXe ",
"e mX& & 0 0 vXvXvXvXvX& nX0 0 0 nX0 & & # { MXMXnX& & 0 0 & mXe e mX0 nXq q q 0 0 vXvX* * & & 0 0 0 # # nXnX0 0 0 & # nXnXnXmXe ",
"e mXvXvX$ $ * $ $ vXvX0 nXnXnX0 0 0 & & & # q q 0 # & 0 0 0 mXe e mX{ q q q q 0 * * * & & 0 0 0 0 0 nXnX0 & nXnX# nXnX& & & mXe ",
"e mX* * * * - - * vXvX0 0 # # # & & # # # q q q 0 # & 0 0 nXmXe e mX# # # # & & * * * & 0 0 0 q q 0 0 0 0 & nXnX0 & & * * $ mXe ",
"e mX- * - - $ vX* 0 0 nXq q q q & # & & & # # # q # 0 & & & mXe e mX# nX& & 0 vXvX& & & 0 0 0 MXq 0 0 0 nXnX0 0 & * $ $ $ $ mXe ",
"e mX* * * * - $ * 0 0 & # q q nX& & # # & # # # nX0 vXvXvX& mXe e mX& nX& & & vX& nXnX0 0 0 0 q 0 0 0 0 # nX0 0 & $ $ $ $ * mXe ",
"e mX- $ * * bX- - vXvX& & # # nX# & # # * & nXnX0 vXvXvXvX& mXe e mXvXvX& & * 0 q nXnX0 nXq q nXnX# 0 0 nX0 vXvX$ $ $ $ $ & mXe ",
"e mX$ - * * $ vXvXnXnX& & nXnX0 vX& & & - * & & * vXvX$ $ $ mXe e mXvX$ & & & # # # # * & q q q & & * * vXvXvXvX$ vX$ $ $ $ mXe ",
"e mXvXvXvXvX$ vX0 q q nX0 nXnXvX* * vXvXvX& * * - * vXvXvX* mXe e mX0 vX& & & & # & & * & nXnX# nX& vXvXvXvX0 0 vXvXvX$ $ $ mXe ",
"e mXvXvX$ $ $ vXnX0 0 0 0 0 0 * - * $ $ * $ bXbXbXvX& & & * mXe e mXvXvX# # vXvX& * * & 0 0 0 nXnX& & & nX# 0 0 vX& vXvXvX$ mXe ",
"e mX$ $ bXbXbX$ & vXvXvX0 & & & - $ * * - bXbXbXbX* - * * $ mXe e mX* $ vXvXvX* $ vXvX& 0 0 0 nXnXnX0 0 0 vXvXvX$ vX* $ $ & mXe ",
"e mX$ bXbXbX$ $ vXvXvX& # 0 0 vX$ - = = = $ bXbX$ - * & & * mXe e mX$ $ $ $ $ bX$ $ $ $ vX& & # nX0 vXvX$ $ $ $ * $ $ $ $ * mXe ",
"e mX$ bXbXbX$ * * vXvX& q 0 0 - - = = = - * bXbXbX$ * $ $ $ mXe e mX$ bX$ $ bXbXbXbXbX$ & & & # nX0 $ $ $ $ $ $ - = bX$ $ vXmXe ",
"e mXbXbXbXbX$ * * vXvXnXMX# # vX$ - $ $ vX* bXbXbXbX- = = = mXe e mXbXbX- - $ bXbX$ $ * & & & & # nXvXvXvX& * * = = * $ $ $ mXe ",
"e mXbX$ $ $ $ * * * * 0 q # # nXvX* vXvX& * * * $ $ - = = d.mXe e mXbXbXbXbX$ bXbX$ $ * * vXvX0 nX& * * $ vX- - = bX$ * * * mXe ",
"e mX$ vXvXvX$ & & & & 0 & & & & * * $ $ vX& vXvXvXvX$ bXbXj.mXe e mXbXbX* * * $ $ $ $ $ $ vXvX0 & * vXvX* * - - - $ * * * * mXe ",
"e mX0 vXvXvXvXvX& - - * & & & & vX& vXvX& vXvXvX0 vX$ - - = mXe e mX$ $ $ $ 0 vX& 0 0 vXvXnXnXnX* * vXvX- - * * - - * & & vXmXe ",
"e mX0 0 vXvXvXvX& vXvX& & & & & nX0 & & & 0 0 0 nX0 vX$ $ - mXe e mX* $ vXvXq 0 vX0 0 vXvX0 0 nX& * $ $ $ vXvXvX- - * nXnX0 mXe ",
"e mXvXvXvXvXvXvX# nXnX0 q nXnX& nX0 & & nXnX0 0 0 vX& vXvX$ mXe e mXvX- * * 0 vXvXvXvXvXvXvXvX& & vXvXvX& 0 vXvX- * vX# # { mXe ",
"e mX$ $ $ $ vXvX0 0 0 0 nX& & & nX0 0 0 # & 0 0 0 0 vXvXvX$ mXe e mXvXvX& & & vXvXvXvXvXvXvXvX& nX# # # & nXnXnXvXvXnX# # pXmXe ",
"e mX$ $ $ $ vX0 nXnXnXnX& * * & 0 vX0 0 vXvXvXvX& & vXvXvX& mXe e mXvXvX* * - * vXvXvXvXvXvXvX0 0 & # # nX0 0 0 vXvX& } } pXmXe ",
"e mX$ vX& & # nX& & & 0 & * * & vXvX0 0 $ $ $ $ & & & nXnXvXmXe e mXbXbX- - bXvX0 vXvXvXvX0 0 0 0 & & & q 0 vXvXvXvX& # # # mXe ",
"e mXvX* & & & & & vXvX& & 0 0 0 * * - - $ $ $ $ * vX0 q q 0 mXe e mXbXbXbXbXbX* & vXvXvXvX0 0 & vX0 0 0 q q 0 0 vXvXvX& & nXmXe ",
"e mX& * & & nX& & 0 0 & & & & 0 - * * * - = - - - 0 q mXmX{ mXe e mXj.bXbXbXbX& & vXvXvXvX0 0 & & 0 0 0 0 nX0 0 vX& * $ $ vXmXe ",
"e mX0 vX& & nX0 vX0 0 nX0 nXnXvX- $ - - - - * * $ 0 q } } q mXe e mXbXbX$ $ $ 0 & 0 0 0 & & & & 0 0 vXvXvX0 vXvXvX& vX$ $ $ mXe ",
"e mX0 0 0 0 0 vXvX0 0 0 q # # # $ * = = - $ $ $ * * nXq q q mXe e mX$ * - - * & nX0 0 & & & & # 0 q 0 0 0 nXvXvXvX& vXvXvXvXmXe ",
"e mX0 0 nXnXnX0 0 nXnXq MXq q & * * = = = - $ $ * $ & q q MXmXe e mXvX& 0 0 vX0 0 vXvXnX& & & nX0 nX0 0 vX0 $ $ $ $ $ vXvXvXmXe ",
"e mXvX0 # # nX0 vX& & # nX& & * * * = = - * * * * - * q q q mXe e mX& nXnXnX& & vXvXvX& # # # q 0 0 vXvXvXvX$ $ bXbX$ vXvX& mXe ",
"e mXvX0 0 0 nXnX0 0 0 vX$ $ $ * * * - - $ * vXvX$ $ * # # # mXe e mX& # # # & 0 vXvXvX& & # # q 0 vXvXvXvXvXvXvX$ $ $ vXvXvXmXe ",
"e mX0 q MXMX# nXnX& & * $ - - - * $ $ $ - * * * vX& & nXnX& mXe e mX& # & & & 0 0 vXvXvX& # # q # 0 vXvXvXvX$ $ $ vXvXvXvX$ mXe ",
"e mX0 0 q q pX# & * * $ - $ $ * $ vX$ $ $ - * * vXvX& nXnX& mXe e mX& # & & # 0 vXvXvXvX* * * & & nX0 0 vXvX$ $ bXvXvXvXvXvXmXe ",
"e mX0 vX0 0 nX& & * * & vX* * * & 0 0 0 vXvX& & vXvX& nXnX& mXe e mX& & # # & vX0 0 0 * * & & nX0 0 $ $ $ $ $ $ $ vXvXvXvXvXmXe ",
"e mX0 vXvXvX0 & & & & & 0 & & & & & # # 0 vXvXvXvX& # 0 0 vXmXe e mX& & & & vX0 nXnXnX& * nXnXnX0 vX$ $ $ & - - $ $ vXvXvX0 mXe ",
"e mXnX0 vXvX0 & & nXnXq nX0 0 vX$ $ & & & * vXvXvX0 & vXvX* mXe e mX& # 0 0 vXvX0 & & & & nXnX& vXvXvXvXvXnX0 0 vXvX0 0 0 nXmXe ",
"e mXq 0 0 0 nXnX0 # # # 0 vXvXvXvX$ vXvX& * $ $ vXnX0 vXvX* mXe e mX& & & & * vXvXvXvX& & & & & & & nXnX0 & & & vX0 0 & & & mXe ",
"e mXq 0 vXvX& # # q q nX0 vXvX$ $ bX$ $ $ $ $ $ $ 0 nXvXvX* mXe e mX# nXvXvX$ $ vXvXvXnXq q q q & & q q q # & & 0 0 & & & & mXe ",
"e mX0 vXvXvX& iXiXnXnX0 0 $ $ $ bXbXbXbXbX$ bXbXbX$ vXvXvX* mXe e mXvXvX$ $ $ $ $ & & q q mXmXw q # { { MXq & & 0 0 0 vXvXvXmXe ",
"e mX$ $ $ $ * # & $ $ $ * bXbXbXbXbX8 8 8 8 s.s.= * vX$ $ * mXe e mX$ bXbXbXbXbX$ vXvXnX& nXnXnXvXnX# # nX0 $ $ $ & vX$ $ * mXe ",
"uXq q iXw w w aXiXiXaXaXaXuXq q iXw w 0 q aXuXq uXuXuXuXiXuXq 0 q uXq q q uXiXq q uXuXpXaXL.q uXiXiXiXuXuXaXw pXuXq q q uXiXq q ",
"pXpXpXpXw w aXaXaXpXaXaXaXpXpXpXpXw w mXaXaXaXw pXiXiXpXpXpXmXMXpXpXpXpXpXpXpXmXmXpXpXaXaXaXw pXpXpXpXpXw L.L.w mXpXpXpXpXpXmXmX",
"w w w w aXL.aXL.w w aXaXaXL.aXw mXw w w aXaXaXw mXpXpXpXpXaXaXw w w aXw pXpXpXpXmXpXaXaXaXaXaXw w w L.L.L.aXL.L.w mXpXaXw w w w ",
"aXaXw w aXL.aXw w w L.aXaXL.w mXmXw w w aXaXaXw MXw aXpXaXaXaXw w w w mXmXpXpXpXmXw aXaXL.L.aXw w w L.L.L.aXaXw w mXw aXaXaXaXaX",
"aXaXpXaXaXaXL.L.L.L.aXaXaXaXL.w w L.L.L.aXaXaXw w w w w aXaXaXaXw w L.w mXw aXaXw L.aXaXL.L.w w w L.L.L.L.L.aXL.L.w L.aXaXaXaXaX",
"aXpXpXaXaXpXL.L.L.aXaXaXaXpXw w w aXL.L.aXaXaXw w w w w aXaXaXpXw aXw w pXw w L.L.L.w aXaXL.w aXL.aXL.L.L.aXaXL.L.L.L.pXaXaXaXaX",
"w pXpXaXaXpXL.L.w aXpXaXaXpXaXw pXaXaXL.aXaXaXw w w w L.L.aXL.w w pXaXw pXpXw L.L.w w w L.L.w aXw aXaXL.L.aXaXL.aXL.w pXw w w w "
};
