/* XPM */
static char *result[] = {
/* columns rows colors chars-per-pixel */
"64 64 256 2 ",
"   c black",
".  c #0000A8",
"X  c #00A800",
"o  c #00A8A8",
"O  c #A80000",
"+  c #A800A8",
"@  c #A85400",
"#  c gray66",
"$  c gray33",
"%  c #5454FC",
"&  c #54FC54",
"*  c #54FCFC",
"=  c #FC5454",
"-  c #FC54FC",
";  c #FCFC54",
":  c gray99",
">  c #ECECEC",
",  c gainsboro",
"<  c #D0D0D0",
"1  c #C0C0C0",
"2  c #B4B4B4",
"3  c gray66",
"4  c #989898",
"5  c gray55",
"6  c #7C7C7C",
"7  c gray44",
"8  c #646464",
"9  c gray33",
"0  c #484848",
"q  c gray22",
"w  c #2C2C2C",
"e  c #202020",
"r  c #FC0000",
"t  c #EC0000",
"y  c #E00000",
"u  c #D40000",
"i  c #C80000",
"p  c #BC0000",
"a  c #B00000",
"s  c #A40000",
"d  c #980000",
"f  c #880000",
"g  c #7C0000",
"h  c #700000",
"j  c #640000",
"k  c #580000",
"l  c #4C0000",
"z  c #400000",
"x  c #FCD8D8",
"c  c #FCB8B8",
"v  c #FC9C9C",
"b  c #FC7C7C",
"n  c #FC5C5C",
"m  c #FC4040",
"M  c #FC2020",
"N  c #FC0000",
"B  c #FCA85C",
"V  c #FC9840",
"C  c #FC8820",
"Z  c #FC7800",
"A  c #E46C00",
"S  c #CC6000",
"D  c #B45400",
"F  c #9C4C00",
"G  c #FCFCD8",
"H  c #FCFCB8",
"J  c #FCFC9C",
"K  c #FCFC7C",
"L  c #FCF85C",
"P  c #FCF440",
"I  c #FCF420",
"U  c #FCF400",
"Y  c #E4D800",
"T  c #CCC400",
"R  c #B4AC00",
"E  c #9C9C00",
"W  c #848400",
"Q  c #706C00",
"!  c #585400",
"~  c #404000",
"^  c #D0FC5C",
"/  c #C4FC40",
"(  c #B4FC20",
")  c #A0FC00",
"_  c #90E400",
"`  c #80CC00",
"'  c #74B400",
"]  c #609C00",
"[  c #D8FCD8",
"{  c #BCFCB8",
"}  c #9CFC9C",
"|  c #80FC7C",
" . c #60FC5C",
".. c #40FC40",
"X. c #20FC20",
"o. c #00FC00",
"O. c #00FC00",
"+. c #00EC00",
"@. c #00E000",
"#. c #00D400",
"$. c #04C800",
"%. c #04BC00",
"&. c #04B000",
"*. c #04A400",
"=. c #049800",
"-. c #048800",
";. c #047C00",
":. c #047000",
">. c #046400",
",. c #045800",
"<. c #044C00",
"1. c #044000",
"2. c #D8FCFC",
"3. c #B8FCFC",
"4. c #9CFCFC",
"5. c #7CFCF8",
"6. c #5CFCFC",
"7. c #40FCFC",
"8. c #20FCFC",
"9. c #00FCFC",
"0. c #00E4E4",
"q. c #00CCCC",
"w. c #00B4B4",
"e. c #009C9C",
"r. c #008484",
"t. c #007070",
"y. c #005858",
"u. c #004040",
"i. c #5CBCFC",
"p. c #40B0FC",
"a. c #20A8FC",
"s. c #009CFC",
"d. c #008CE4",
"f. c #007CCC",
"g. c #006CB4",
"h. c #005C9C",
"j. c #D8D8FC",
"k. c #B8BCFC",
"l. c #9C9CFC",
"z. c #7C80FC",
"x. c #5C60FC",
"c. c #4040FC",
"v. c #2024FC",
"b. c #0004FC",
"n. c #0000FC",
"m. c #0000EC",
"M. c #0000E0",
"N. c #0000D4",
"B. c #0000C8",
"V. c #0000BC",
"C. c #0000B0",
"Z. c #0000A4",
"A. c #000098",
"S. c #000088",
"D. c #00007C",
"F. c #000070",
"G. c #000064",
"H. c #000058",
"J. c #00004C",
"K. c #000040",
"L. c #282828",
"P. c #FCE034",
"I. c #FCD424",
"U. c #FCCC18",
"Y. c #FCC008",
"T. c #FCB400",
"R. c #B420FC",
"E. c #A800FC",
"W. c #9800E4",
"Q. c #8000CC",
"!. c #7400B4",
"~. c #60009C",
"^. c #500084",
"/. c #440070",
"(. c #340058",
"). c #280040",
"_. c #FCD8FC",
"`. c #FCB8FC",
"'. c #FC9CFC",
"]. c #FC7CFC",
"[. c #FC5CFC",
"{. c #FC40FC",
"}. c #FC20FC",
"|. c #FC00FC",
" X c #E000E4",
".X c #C800CC",
"XX c #B400B4",
"oX c #9C009C",
"OX c #840084",
"+X c #6C0070",
"@X c #580058",
"#X c #400040",
"$X c #FCE8DC",
"%X c #FCE0D0",
"&X c #FCD8C4",
"*X c #FCD4BC",
"=X c #FCCCB0",
"-X c #FCC4A4",
";X c #FCBC9C",
":X c #FCB890",
">X c #FCB080",
",X c #FCA470",
"<X c #FC9C60",
"1X c #F0945C",
"2X c #E88C58",
"3X c #DC8854",
"4X c #D08050",
"5X c #C87C4C",
"6X c #BC7848",
"7X c #B47044",
"8X c #A86840",
"9X c #A0643C",
"0X c #9C6038",
"qX c #905C34",
"wX c #885830",
"eX c #80502C",
"rX c #744C28",
"tX c #6C4824",
"yX c #5C4020",
"uX c #543C1C",
"iX c #483818",
"pX c #403018",
"aX c #382C14",
"sX c #28200C",
"dX c #600064",
"fX c #006464",
"gX c #006060",
"hX c #00001C",
"jX c #00002C",
"kX c #302410",
"lX c #480048",
"zX c #500050",
"xX c #000034",
"cX c gray11",
"vX c #4C4C4C",
"bX c gray36",
"nX c gray25",
"mX c gray19",
"MX c #343434",
"NX c #D8F4F4",
"BX c #B8E8E8",
"VX c #9CDCDC",
"CX c #74C8C8",
"ZX c #48C0C0",
"AX c #20B4B4",
"SX c #20B0B0",
"DX c #00A4A4",
"FX c #009898",
"GX c #008C8C",
"HX c #008484",
"JX c #007C7C",
"KX c #007878",
"LX c #007474",
"PX c #007070",
"IX c #006C6C",
"UX c #980088",
/* pixels */
"qXqXwXwXwXwXwXwX8 bX7 9X9X7 7 qXqXqXqXrXqX$ ! ~ ! nX! nXnX! nXyXrXqX9X9X9X9X9X9X9XqXrXwX9X9X9X9X9X9X7XwX$ vX$ $ wXqX7X7X7X7X9XqX",
"9XqXwXrXwXwXwXbX$ vX$ $ $ $ $ $ rXrXrXrXrX$ ~ ,.,.,.,.,.,.,.:.! $ 8 7 9X9X9XqXwX8 $ 0 $ bXbXbX8 wXwXrX$ $ $ $ bX8 8X7X7X7X7X7X9X",
"7X7XqXrXrXrXqXbX$ ! ! nX:.! iXiXyXyXyXrXrXyX! nX! nX! ~ nXnX:.nXvX$ $ $ qXwXrXrX$ ! iX0 nX:.vX! nXyXiXnX:.nXbX7 6 6X7X7X9X9X7X7X",
"7X7X9X9XqXqX9X8 $ ! $ $ $ ! ! $ rXrXrXrXrXyX0 $ bXbXbX$ $ $ nX~ ~ ! 0 $ rXwXyXyXiX~ ! ! ,.,.>.,.,.<.1.<.,.,.vX8 6 7X7X9X9XqX9X7X",
"9X0X7X9X9X9XqX$ $ vX$ bXbX$ $ bX8 wXwXwXqXwXrXwX9X9X9X9XqXwX$ $ $ $ $ $ wXwXrXyX$ $ 8 $ vX:.:.:.:.! iX~ ! ! nX$ bXwXwXqX9X9X9X9X",
"yX$ $ $ $ $ $ nX,.:.vXvXvX$ vXvX$ $ $ 8 8 rXyXtXqXqX9X9XqXbX$ bX7 7 8 8 qX9XwXrX8 7 7 6 8 vX:.vX$ $ $ $ $ $ ! nXnXnX0 nXvX$ $ $ ",
"<.,.iX~ ,.:.:.,.<.<.,.,.,.,.! ,.:.>.! nX$ yXyXrX9X9X9XqXwX$ $ 8 7 9X9XqX9X9XqXwX9X9X9X7X9X$ ! $ 8 wXqXrXrX$ $ :.,.,.<.,.,.,.,.,.",
"<.<.! ~ ,.,.,.,.,.<.<.<.,.,.,.,.,.,.,.,.uXrXyXwX7X7X9XqXrXrXyXwX9X7X7X7X7X7X9XwXqXqX9X9X8XqXrXrXwXqXqXqXwXwX$ ,.,.,.~ ,.,.,.,.,.",
"0 ! ! $ ! nX0 nXnX:.:.:.:.0 nXnX:.vX! nX$ rXyXwX7X9X9XqXwXrXyXwX9X5X5X7X7X9X9X9X9X9X9X9X7XqXrXwXqX9X9XqXqX9XrX~ ! $ $ $ $ vX! ! ",
"9X$ $ $ $ $ $ rX8 rXrXrXrXwXwXwX8 8 $ $ $ rXrXwX7X7X9XwXwXrXrXwX8X5X7X9X9X9X9X9X9X9X9X9X7X9XwXqX9X9X9X9XqX9XwXiX$ 8 $ 8 7 7 7 7 ",
"9XwX$ $ 8 8 wXqX9XqXwXwXwXwX9X9X9X9XwXeXeXrXrXqX7X7X7XqXqXqX9X9X9X9X9X9X9X9XqX9X7X7X7X9XqXqX9X9X9X9X7X9X9X9XwXyXrXwXrXwX9X9X6X6X",
"rXyX~ ! $ $ $ $ $ nX! ! uXyX0 $ yX0 yXrXrXtXrXqX7X7XqXrX$ rXwX9X9XwXqX7X8X8XqXqXqXqXwXqXqX0X9X7X7X9X7X9X9X8XwXyX! $ $ nXnX$ $ $ ",
"~ ~ ,.,.! ~ ,.,.,.,.~ ~ ~ ~ ~ ~ <.<.,.~ 0 rXwXwXqXqXyXiX~ iXyX9X9XwXeXwXwXwXwXrXrXrX$ $ $ $ $ 7 7 9XwXqXqXwX$ ,.,.! iX~ ~ ~ ! ~ ",
"yXyXvX$ vX~ ,.,.! ! ! yXuX~ ,.~ iX~ ,.<.! $ wXwXwXqXrX! ! ! yXwXwXtXyXuXuXuXtXtXtXuX~ ,.,.~ ! $ $ $ ! 0 0 nX>.:.! ! 0 ! iX! ! uX",
"rXrX$ bX$ :.,.:.$ 8 8 bXyXyX~ ! $ $ nX,.$ 8 rXrXwXqXwX$ $ 8 wXwXwXeXwXrXyXyX$ wXwXrX! ! ~ ! iX~ ~ ~ ,.~ ,.,.,.vXbX8 8 $ $ 8 8 $ ",
"9XqXwXrX$ ! ,.vXbX9X9XwXrXyX0 $ $ bX$ nX$ 8 rXwXqXqXwXrXwXqX9X9X9XqXwX8 $ $ bX8X8X9X7 bX$ $ $ ! ! ! ! ! vX>.,.vXbXqXqXqXqXqXqX9X",
"9X9XqXwX$ ! ! $ wX9X7X7X9XqXqXqX9X9X8 nX$ $ rXqXqXqXqXwXqX9X7X7X7XqXrXyXuXrX9X7X8X8X8X9X8 8 7 8 $ $ $ 8 7 vX,.! bXqX9X7X9X9X9X9X",
"9X9X9X8 $ ! $ bXwX9X9X9X9X9X9X9X9X7XwXyXyXrXrXqX9XqX9X9XqX9X7X7X7X0XrXyXuXyXrXeXrXwXwXqX9XqXqXqXwXwXwXwXbX$ ,.0 8 9X9X9X9X9X9X9X",
"7X9X9XwXvXnX$ bXwX9X9X9X9XqXqX9X9X9XwX! nXvXvX$ wXrXwX8 bXbX8 8 8 7 bXbXvX:.iXyXyXtXtXeXqXqXqXqXqXwXrXrX$ ! ! yXwX9X9X9X9X7X7X7X",
"9X9XqXrXrXyXrXwXqX7X7X9XqXwXqX9XqXwXbXvX,.>.nX0 $ rXrX$ $ vX$ ! $ $ $ $ nX~ nX$ rXrXrXwXqXwXwXwXwXrXyXyXvX$ rXrXqX9X9X9X9X9X9X9X",
"qXqXwX$ nX,.! 8 wXqX8X8XqXwXrXrX8 $ $ :.,.,.,.~ ~ uXyX0 ~ ~ ! ! ! ! yX0 ,.,.$ bXbX$ $ rXwXwXwXqX8 bX$ $ $ bX8 rXwX9XwXwXwXwXrXrX",
"tXyX0 nXnX,.:.$ $ $ $ bX7 bX$ $ $ vXvX:.:.,.~ ! iXyXyX0 ! ! ! ! ! $ rX$ $ ! ! 0 vXrXyXrXrXeXwXwX$ $ $ vX$ $ rX$ $ $ $ $ vX0 nXnX",
"~ <.1.,.:.,.<.,.,.,.,.! $ 8 $ ~ ,.,.>.:.>.nX$ $ rXrXrXbXbXbX$ $ bX8 wX7 8 $ ! ,.! yXyX! yXrXrXyXuXyXnXnXuXyXuXiX! ! :.>.,.,.,.,.",
"~ <.<.,.nX~ ,.<.<.,.,.,.! ! iX,.,.,.>.,.,.nXwXqXqXqX9XqX9X9X9X9X9XqX9X9XwXrXyXnX$ rX$ ! yXrXbX$ ! $ $ $ rXrXyXnXiX,.,.,.,.<.,.,.",
"wX$ ! $ $ $ ! nX! nX! $ $ ! nXnX$ bX$ ! ~ yXwXqXqX9X9XqXqXqXqX9X9XqX9X9XwXrXyX$ 7 9X8 $ rXwXbX$ $ 8 7 wXrXrXrXbX$ $ vX:.:.! $ $ ",
"7XqXrXwXwXwXwX$ $ $ $ 8 wXrXrXrXqX7 7 $ iXyXbXqX9X9X9X9XqXqX9X9X9X9X9X9XbX0 iX$ 9X7X8X8XqXqX$ $ yXrXwX9X9XqXqX9X9X7 bXbXbXbX$ 8 ",
"9XwXrXwXqX9X9X9XqXwXqX9X9XqX9X9XqX9X7 $ iXnXbXqX9X9XqXqXrXrXwXwXqXwXwXwX$ nX,.$ 9X7X7X8X9XqX$ yXyXrXrXqX9X9X9X9X7X7X9X9X9X9X9X9X",
"qXrX! $ rX9X9X9XqXwXqX9XqXqXqXqX8X9X7 $ ! vX$ rX8 bX$ $ $ $ 8 bX8 wXwX$ 0 ! ~ $ 9X9X9X9X9X9XrXrXyXrXwXqX9X9X9X9X9X7X9X9X7X9X9XqX",
"wX$ ! ! rX0XqXwXrXwXwXrXyX0 wXqXqXqXbXvX:.nXvXrX$ ! 0 ! $ $ $ $ $ rXrX$ 0 ~ ~ $ 9X9XqXqX9X7X9XrXyXrXwX9X9X9XqXwXwXqX9X9X9X9X9XqX",
"qXrX$ ! rX9X9XqXqXqXwXyX~ ! $ wXwXrXnX~ :.:.,.uX~ ,.~ ~ ~ ! nX0 ! yXyX$ rXrXuXrX8X7X9X9X9X9XqXwXrXwX8X9X9XqXwXrXrXrXqX9X9X7X7X9X",
"7XqXwXrXqX7X7X7X9X9XwXyX! $ bXrXrXwXbX$ $ nXuXrX$ $ 0 ! nX! nX$ rXrXyX$ 7 8 0 $ qX7X7X9X9X9X9XwXrXqX7X7X7XqXrXyXyXrX9X9X7X7X7X7X",
"9X9XwXwX8X7X7X7X9XqXwXrXyX$ rXwXwXqX8XqXqXwXwXwX8 7 9XwXrXrXwXqXqXwXtXwX9X$ 0 yXwX9X9X9X7X9X9X9XqXqX7X9X9XqXrXuXuXrXwX9X7X7X7X7X",
"9XqXrXrX9X9X7X9X9XqXwXrXtXrXwX9X9X9X9X9X9X7X7X7X7X7X7X9XqXqXwXqXqXqXwXwX7 $ ! ! $ qX9X7X7X9X9X9X9X0X7X9X9XqX8 ! ~ $ 8 9X9X9X7X9X",
"7X9XwXrXwX9X9X9X9X9X9XqXwXwXqX7X7X9XqXqX9X7X7X7X7X9X9X9X9X9X9X9XqX9X9X9X7 vX,.! bX9X9X7X7X9XqXwX8 7 9XwXqXqX7 $ ! $ 8 qXqXqX7X7X",
"5X9XrXyXrX9X7X7X7X7X8XqXrXwX9X7X7X9XqXqXqX9X7X7X9X9XqX9X7X7X7X9X9X7X7X7X7 $ ,.! $ qX9X7X7XqXwX$ $ 7 7 bXbX8 bX$ ! $ bXrXrXrXqX7X",
"7X9XrXyXwX9X7X7X7X8XqXrXyXwX9X9X9X9X9XqXwXqX9X9X9X9X9X9X7X7X9XqX9X9XqXqX8 $ ! $ $ qX9X9X9XrX$ ! ! $ $ ! ! $ vX! ! $ $ ! nXnXrX7X",
"9X0XrXrXqX8X7X9X9XqXrXyXyXrXqXqXqXqX9X9XqXwXqX9X9XqXqXqXqXqXqXwXqXqXqXwX$ vXrXwXqX9X9X9XrXnX! ! ! nX,.,.~ nXnXiXiX$ $ ,.~ ! $ 9X",
"qXwXqX9X9X9X9X9XqXwXrXrXyXrXqXqXqXqX9X9XqXqXqX9X9XqXwXrXrXwXwXqX9X9XwXrXyXyXwX7X9X9X9X9X$ ! nX$ $ $ ! nX$ $ $ $ rX$ vX! ,.! bXqX",
"wXwXqX9X9X7X9X9XqXwXrXrXrXwXqXqX9X9X9X9X9X9X9X9XqXwXrXrXyXwXqX9X9X8XwXrXyXuXrX9XqXqX9XwX$ ~ $ bXqXqXwXwXwXwX$ 8 wXwX$ $ ! $ 8 qX",
"qXqX9X9X9X9X7X9XqXqXqXrXrXrXwXqX9X9X9X9XqXqXqXqXqXqXwXrXyXrXqX7X9XqX8 $ ! ! $ 9XqXqX9XwX$ ! $ 8 wXqX9X9X9XqXqXqXqXqXwXrXyXrXqXqX",
"qXwXwX8 $ 8 7 9X0XqX8 nXiX$ wXqXqX9X9XqXqXwXwXrXwX8 8 $ nXvXbXwXwXqX8 $ 0 ! $ 9XqXqX9XqX$ $ 8 wXwXwX9XqXqX9X9X9X9X9XqXrXyX$ 8 8 ",
"rXrX$ nX! $ $ $ rXrX! ! <.~ yXwXqX9X9X9XqXqXrXrXrX$ bXvX! :.vXrXrX8 $ $ nX$ 8 7XqXqX9X7X9XwXwXqXqXqXqX9XqX9X9X9X9XqXwXrXnX! $ $ ",
"~ ~ ,.,.,.! ~ iXuXyXiX~ <.~ yXwXqXqX9XqXqXrXyXyXyXnX:.~ ~ ~ ~ ~ yX$ $ ! iX$ 9X7X9X9X9X9X9XqXwXqXwX$ $ bX8 wX9X9X9XqXrXrXnX~ ,.~ ",
"yX! ! ! ! ! ! nX0 iXnXvXyXrXwXqXqX9X9X9XqXrXrXrXyXnX:.! ! nX$ rXrX$ $ yX! rX8X7X9X9X9X9X7XqXrXrX$ ! ! vX$ rXqX9X9X9XwXrX! ! vX$ ",
"qXwXbX$ $ $ 8 8 $ nX$ $ wXwXqXqX9X9X9X9X9XwXwXrXrX$ 8 8 $ vX8 wXrX8 8 $ iX$ 9X7X9X9X9X7X9XrXyX0 0 nX:.>.:.nXwXwXrXwX8 $ $ bXbXbX",
"qX9XqXqXwXrXwXbX$ ! $ 8 9X9X9X9X9X9X9XqXqXwXqXqXqXqX9X9XqXwXqXqXqXrXbX$ ~ $ 9X9X9X9X9X9XwXrXuX! $ vX$ :.,.~ ! yXyXyX$ $ $ 8 7 wX",
"9X7X7X9XqXqXqX8 8 $ 8 7 5X7X7X9X9X9XqXwXwXqXqXqX9XqX9X7X9XwXwXqXqXwX$ nX,.yXwX7X9X9X9XqXrXyXyX$ bXbXbXvX:.! $ $ yXyXrXwXwX9X7X7X",
"7X7X7X9X9XqX8X7 8 $ 8 7 5X7X9X9X9X9X9X9X9X9X9X9XqX9X7X7X9XqXqX9X9XqXrXyX~ rX9X5X7X9X9XqXrXyXyXrX9X9XqXwXyXrX8 $ rXrXwX8 wXrX9X6X",
"9X9X9XqXqXqX8X6X8 ! $ wX7X9X9X9XqXqX7X7X7X7X9X9X9X7X5X6XqXrXwXqX9X9XwXyX~ rX9X7X7X7X9X9XwXrXrXwX8X7XqXqXrXrXwXwXwXwXwXwXrXyXwX9X",
"7X9X9XqXwXqX9X9XqXrXrXwX7X7XqXwXwXwXqX6X7X8XqXqX8X6X4X6 8 ! $ wX7X7X9XyX~ rX9X7X7X7X9X9X9XqXqX7X7X9XqXrXrXrXwX9X7X9X9XrXyXyXrX9X",
"7X9XqXqXwX8 8 7 7 8 $ bX8 7 bX8 8 8 bX7 7 bXbX7 8 6X6X7 $ ! vXbXwXwX8 $ ~ $ 7 9X7 8 8 8 8 $ $ 8 8X9XqXwXrXtXwX9X9X9X9XwXrXrXwX9X",
"9XqXwXrXyX! ! $ 8 8 $ ! :.! ! $ $ $ ! vXvXvXvXvXvXrXrX$ ! ~ :.nXyXyXvX0 ~ iX$ $ $ vX$ $ $ 0 ! ! rXwXqXwXtXrXqX9XqX9X9X0XwXrXqX0X",
"wXeXyXyXiX~ ,.<.! $ nX,.,.,.,.! ! iX>.~ :.,.,.,.:.yXyX! ! iX,.! ~ ~ uXtXiX~ uX~ ,.,.,.~ ~ nX! ! yXtXrXrXtXrXqX9X9X7X7X9XqXwXwXwX",
"wXeXwXrX$ ! ! ! nX$ $ $ :.~ ! nX$ $ $ $ nX:.,.,.nXrXwXwXwXrX$ ! rXrXrXwXwXrXyX~ ! $ vX! $ $ $ $ rXeXrXwXrXrXwX9X9X9X9XqXwXwXwXwX",
"9X9XqXwXrX$ $ $ $ 8 8 bX$ $ $ $ 7 wX8 8 $ vXnX>.nXwXqX9X9X9XrXyXyXrXrXrX9XqXrXyXbX6 8 7 7 8 7 9XqX9X9XqXwXeXwXqXqXqX9XqXwXrXwXqX",
"9X7X7X9XqXwXqX9X9X9XqXqXqXqXwXqX9X9X9X9X9XwXyX~ nX$ $ wXwXqXwXyXyXyXwXwXwXeXtXtXqX6X8X7X9X9X9X7X7X7X7X7X9XwXwX9X9X9X9XqXwXwXwXqX",
"9X7X7X7X9XqXqX9X9X9X9XqXqXqXwXqX9X9X9X9X7XqX! ,.! ! nXrXwXqXqXwXrXrXwXwXrXrX0 nX$ 8 7 wXwXwX9X9X7X5X6X6XbX$ bX7 8X7X9XqXqXqX9X9X",
"9X9X9X9X9X9X9X9X9X9X9XqXqXqXwXqXqX9X0XqX8XwXnX,.,.,.,.yXrXqXwXyXyXyXyXrXyXyXiX,.~ vX$ $ tXrXrXwXqX9XqX$ vX:.$ 7 7 7X9XwXwX9X9X9X",
"wXwXrXwXqXwX7 bXbXbX$ $ $ $ $ $ $ bX8 8 bX8 vX:.nX! nXyXrXwXyX~ ~ ~ yXyXyXyX,.,.,.,.:.iXyXtXtXrXrXwXeX$ :.:.:.$ $ qXqXrXrXqX9XqX",
"wXrXtXtXrX$ $ $ $ ! nX:.:.! ! ! ! ! $ ! ! ! vX$ $ rXrXwXwXwXyX~ uXrXrXrXwXrX! ! ~ ,.~ $ rXrXrXwXwXqXqX8 bX:.:.:.vXrXrXtXrXwXqXqX",
"9XqXrXyXyXyX$ ! ,.,.,.,.:.,.,.,.,.,.~ ~ ,.,.! $ 8 9X9X9XwXwXrXuXrXwXqXqXqXwX8 bX$ nXnX8 8X8X9X9X9X9X7X6X8 $ :.:.bXwXrXrXwXqXqXqX",
"9X8X8XqXrX$ $ $ $ ! nX$ vX$ vX$ ! ! $ $ $ ! ! $ 9X7X7X9XwXwXrXyXrXwX0X9X9X9X9X8XwXtXtXqX7X7X9X9X9X7X7X7XbXvX:.vX8 9XwXwX9X9XqXqX",
"qX8X6X9XqXwXbXbXbX$ $ bX7 7 7 bX$ $ $ 8 7 wXrXwX8X7X9X9XqXrXrXtXrXwX9X9XqX9X9X9XwXtXtXqX7X9XqX9X7X7X7X9X$ vX:.vXbX9XqXqX9XqXwXwX",
"wX9X7X7X7X9X9X9X9X9X9X7X5X5X7X9XqXqXqXqX9X9XqXqX9X9X9XqXqXwXwXrXwXqX9X9XqXqX9X9X9XwXrXqX9X9XqXqX9X7X7X9X$ nX:.vXbXqXqX9X9X9XwXwX"
};
