/* XPM */
static char *result[] = {
/* columns rows colors chars-per-pixel */
"64 64 256 2 ",
"   c black",
".  c #0000A8",
"X  c #00A800",
"o  c #00A8A8",
"O  c #A80000",
"+  c #A800A8",
"@  c #A85400",
"#  c #4C4436",
"$  c gray33",
"%  c #5454FC",
"&  c #524A42",
"*  c #5E5246",
"=  c #736352",
"-  c #685D4C",
";  c #FCFC54",
":  c gray99",
">  c #ECECEC",
",  c gainsboro",
"<  c #D0D0D0",
"1  c #C0C0C0",
"2  c #B4B4B4",
"3  c gray66",
"4  c #989898",
"5  c gray55",
"6  c #7C7C7C",
"7  c gray44",
"8  c #646464",
"9  c gray33",
"0  c #484848",
"q  c gray22",
"w  c #2C2C2C",
"e  c #202020",
"r  c #FC0000",
"t  c #EC0000",
"y  c #E00000",
"u  c #D40000",
"i  c #C80000",
"p  c #BC0000",
"a  c #B00000",
"s  c #A40000",
"d  c #980000",
"f  c #880000",
"g  c #7C0000",
"h  c #700000",
"j  c #640000",
"k  c #580000",
"l  c #4C0000",
"z  c #400000",
"x  c #FCD8D8",
"c  c #FCB8B8",
"v  c #FC9C9C",
"b  c #FC7C7C",
"n  c #FC5C5C",
"m  c #FC4040",
"M  c #FC2020",
"N  c #FC0000",
"B  c #FCA85C",
"V  c #FC9840",
"C  c #FC8820",
"Z  c #FC7800",
"A  c #E46C00",
"S  c #CC6000",
"D  c #B45400",
"F  c #9C4C00",
"G  c #FCFCD8",
"H  c #FCFCB8",
"J  c #FCFC9C",
"K  c #FCFC7C",
"L  c #FCF85C",
"P  c #FCF440",
"I  c #FCF420",
"U  c #FCF400",
"Y  c #E4D800",
"T  c #CCC400",
"R  c #B4AC00",
"E  c #9C9C00",
"W  c #848400",
"Q  c #706C00",
"!  c #585400",
"~  c #404000",
"^  c #849C7B",
"/  c #738C6B",
"(  c #6B7B63",
")  c #637352",
"_  c #5A6B52",
"`  c #525A4A",
"'  c #4A5242",
"]  c #425239",
"[  c #394A39",
"{  c #313931",
"}  c #313929",
"|  c #293129",
" . c #293121",
".. c #212921",
"X. c #182118",
"o. c #181818",
"O. c #00FC00",
"+. c #00EC00",
"@. c #00E000",
"#. c #00D400",
"$. c #04C800",
"%. c #04BC00",
"&. c #04B000",
"*. c #04A400",
"=. c #049800",
"-. c #048800",
";. c #047C00",
":. c #047000",
">. c #046400",
",. c #045800",
"<. c #044C00",
"1. c #044000",
"2. c #C8BFB2",
"3. c #A89A85",
"4. c #9A8C77",
"5. c #7CFCF8",
"6. c #5CFCFC",
"7. c #40FCFC",
"8. c #20FCFC",
"9. c #00FCFC",
"0. c #00E4E4",
"q. c #00CCCC",
"w. c #00B4B4",
"e. c #009C9C",
"r. c #008484",
"t. c #007070",
"y. c #005858",
"u. c #004040",
"i. c #94846B",
"p. c #8C7B67",
"a. c #847B63",
"s. c #81735D",
"d. c #7B6B5A",
"f. c #007CCC",
"g. c #006CB4",
"h. c #005C9C",
"j. c #736B5A",
"k. c #736B52",
"l. c #9C9CFC",
"z. c #7C80FC",
"x. c #5C60FC",
"c. c #4040FC",
"v. c #2024FC",
"b. c #0004FC",
"n. c #0000FC",
"m. c #0000EC",
"M. c #0000E0",
"N. c #0000D4",
"B. c #0000C8",
"V. c #0000BC",
"C. c #0000B0",
"Z. c #0000A4",
"A. c #000098",
"S. c #000088",
"D. c #00007C",
"F. c #000070",
"G. c #000064",
"H. c #000058",
"J. c #00004C",
"K. c #000040",
"L. c #282828",
"P. c #FCE034",
"I. c #FCD424",
"U. c #FCCC18",
"Y. c #FCC008",
"T. c #FCB400",
"R. c #B420FC",
"E. c #A800FC",
"W. c #9800E4",
"Q. c #8000CC",
"!. c #7400B4",
"~. c #60009C",
"^. c #500084",
"/. c #440070",
"(. c #340058",
"). c #280040",
"_. c #FCD8FC",
"`. c #FCB8FC",
"'. c #FC9CFC",
"]. c #FC7CFC",
"[. c #FC5CFC",
"{. c #FC40FC",
"}. c #FC20FC",
"|. c #FC00FC",
" X c #E000E4",
".X c #C800CC",
"XX c #B400B4",
"oX c #9C009C",
"OX c #840084",
"+X c #6C0070",
"@X c #580058",
"#X c #400040",
"$X c #FCE8DC",
"%X c #FCE0D0",
"&X c #FCD8C4",
"*X c #FCD4BC",
"=X c #FCCCB0",
"-X c #FCC4A4",
";X c #FCBC9C",
":X c #FCB890",
">X c #FCB080",
",X c #FCA470",
"<X c #FC9C60",
"1X c #F0945C",
"2X c #E88C58",
"3X c #DC8854",
"4X c #D08050",
"5X c #C87C4C",
"6X c #BC7848",
"7X c #B47044",
"8X c #A86840",
"9X c #A0643C",
"0X c #9C6038",
"qX c #905C34",
"wX c #885830",
"eX c #80502C",
"rX c #744C28",
"tX c #6C4824",
"yX c #5C4020",
"uX c #543C1C",
"iX c #483818",
"pX c #403018",
"aX c #382C14",
"sX c #28200C",
"dX c #600064",
"fX c #006464",
"gX c #006060",
"hX c #00001C",
"jX c #00002C",
"kX c #302410",
"lX c #480048",
"zX c #500050",
"xX c #000034",
"cX c gray11",
"vX c #4C4C4C",
"bX c gray36",
"nX c gray25",
"mX c gray19",
"MX c #343434",
"NX c #2E2B22",
"BX c #B8E8E8",
"VX c #9CDCDC",
"CX c #74C8C8",
"ZX c #48C0C0",
"AX c #20B4B4",
"SX c #20B0B0",
"DX c #00A4A4",
"FX c #009898",
"GX c #008C8C",
"HX c #008484",
"JX c #007C7C",
"KX c #007878",
"LX c #007474",
"PX c #007070",
"IX c #006C6C",
"UX c #980088",
/* pixels */
"e e L.L.L.L.L.L.L.L.L.L.w L.L.L.L.L...e e e ......L.w L.L.L.e o.o.e L.L.L.L.L.L.L.w L.w w L.L.L.L.L...e e cXo.o.e ......L...e e ",
"nX# nX0 vXvX0 vXvXvX# vX$ vXvXvX0 nX0 # uXnXnXnXnX0 $ vX0 # & aXe nXvXvXvXvX0 0 0 nX# vXvXvXvXvXvX& # q pXMXnXnXnXnXnXnXnXuXpXMX",
"0 0 0 vX$ $ vX$ $ $ & $ $ $ vX$ vX0 vX& & vXvX0 vX$ $ $ $ $ vXpXNX# * * $ vX0 $ * & & vX& $ $ $ & & & yXiXq vXvX0 0 0 0 0 # iXq ",
"q 0 vXvX$ $ 0 0 vX0 # vX$ vX0 $ $ 0 & # 0 0 $ 0 vX$ $ $ vX0 nXL.e nXvXvX$ & 0 vX& nX# & & $ & & # & & yXq iX# 0 0 0 0 nX0 q MXq ",
"iXnX0 vXvXvXnX0 0 0 nX0 vXvX0 $ 0 0 # # nX0 vXvX0 0 $ $ 0 0 q e o.nX$ $ $ & 0 0 # # nX0 0 vXvX0 iXnX# uXMXpXnXnXnX0 0 nXnXq MXq ",
"iXnX0 0 0 vX0 0 nX0 0 nXvX$ $ $ 0 0 0 nXnX# # 0 0 0 vX$ 0 0 q e o.nXvXvXvX$ $ 0 & # nX0 0 0 0 0 q q q q iXiXq # nXnX0 q uXiXpXq ",
"pXq 0 nX0 vXvXvX0 0 0 nX0 vXvX0 0 0 0 nXnX0 0 0 0 vXvX$ 0 0 q sXo.nXvX& $ $ $ $ vX0 0 0 0 0 0 0 nXq q q iXiXiXnX0 0 nXq q q w mX",
"nX0 0 0 0 vXvXvX0 0 nXnX0 0 vXvX$ nX# nX0 0 0 # # 0 vX$ 0 0 q e o.q vXvX$ $ vX$ vXvXvX$ 0 0 $ vX0 nXnXq mXpXq nXnX0 nXiXuXnXmXpX",
"nX0 vX$ vXvXvXvX0 0 0 nXnXnX$ $ $ vX0 nX# # & # nX0 $ $ 0 0 } e cXq vX$ $ $ vX$ vX0 0 $ vXvX$ vXnXq q iXMXpXq q q 0 0 # # # pXiX",
"q nX0 $ vXvX0 0 nX0 0 vXvX0 $ $ vXvX0 0 # yX& vX0 0 $ $ 0 0 MXe e nXvXvX$ $ $ $ vX0 0 $ $ vX$ 0 nXq q pXq MXq q q nX0 0 nX# pXq ",
"q nXnX0 0 vX0 nX0 nXnX& vXvX$ & # 0 0 0 0 0 0 vX0 0 vXvX0 0 q e ..nX$ $ $ $ vX$ $ 0 0 $ 0 nX0 0 q q q nXq mXq q MXq nXnX0 nXMXiX",
"iXuXnX0 nX0 0 0 0 0 0 nX# vX$ & & nX0 0 0 vX# 0 0 nXvXvX0 0 q e L.0 $ bX$ $ $ vXvX0 0 $ vX0 nXnX# q q iXmXmX# nXq nXnXnX0 nXiXq ",
"nX0 0 0 vXvX0 vX$ $ 0 nX# 0 vX& # # # # 0 vX0 0 nXnXvXvX0 0 nX..L.nX$ $ $ $ $ vX0 0 0 $ vX# & nX# q q q pXpX# nX0 0 q q 0 0 q nX",
"nX0 vXvXvX$ vX$ vX$ 0 nX# nX0 0 0 q # yX0 vX0 0 0 0 vXvX0 0 q NX..nX$ vX0 vXvX$ vX0 0 $ $ 0 0 & # nXq iXpXpX# # 0 0 0 nX0 0 q q ",
"nX0 $ $ $ $ vX$ vX0 0 nX# uXnX0 0 nX# yX0 vX0 nXnX0 vXvX# nXq e L.nX$ $ vXvXvX$ vX0 vX$ $ 0 0 nXq q q } aXpXq q nX0 0 0 0 0 q q ",
"0 vX$ $ $ vXvX$ $ 0 0 0 0 nX0 vX0 nX# # 0 vXvX0 nX# & & # nXq e L.0 $ $ $ $ $ $ $ vXvX$ $ 0 nX0 nXnXiXiXpXpXnX0 0 0 nXnXvX0 nXnX",
"0 0 $ vXvXvX& $ $ 0 0 0 vX0 vXvX0 q nX0 0 vXvX0 0 # # vXnX0 q L...0 $ $ $ $ vX0 vX$ $ $ vX0 nX0 nXq q MXiXiXnX0 0 nXnX0 nXnXq uX",
"0 0 0 0 vX$ vXvXvX0 0 0 vX$ vX$ 0 q # 0 0 0 0 0 # # # vX0 vXq e e nX$ $ vXvX0 vX$ $ vX$ 0 0 vXvXnXq q MXiXMXq 0 0 nXnX0 nX0 nXnX",
"0 0 nX0 0 $ 0 vXvXvX0 nX0 0 0 $ $ 0 0 nX0 & # 0 0 0 vX$ vXvX} e e 0 $ $ $ $ vX$ $ vX0 $ 0 nX# vXnXnXq } pXMXnX0 vX0 0 0 0 0 0 0 ",
"0 0 # 0 0 $ 0 0 $ vX0 nX0 nX0 $ $ 0 0 0 0 # yX0 0 vX$ $ vXvXq kXe nXvX$ $ $ vX$ vXvX0 $ vX0 0 vXq # q q iXq 0 0 vX0 0 0 0 0 nX0 ",
"0 0 0 0 0 $ vXvX$ vX0 0 0 nX0 $ 0 # & # & # # 0 0 0 $ vX0 0 q sXcXnXvX$ vXvX0 vXvXvX0 $ 0 nX0 nXq q q q iXiXnXvX0 0 nXnX0 0 0 vX",
"0 0 0 vX0 $ vXvXvXvX0 nX0 0 vX$ 0 0 0 & # nXnX0 vX0 $ vX# 0 q e o.nXvX$ vXvX$ $ $ vX0 $ nXnX0 # q q MXq q q 0 vX0 0 nXnXvXvX0 vX",
"0 vX$ $ vX$ $ vXvX0 nXnX0 nX0 vX0 nX0 vX0 nX0 0 0 0 vXvX0 0 q sXo.nX$ bX$ $ vX$ vX0 0 $ vX0 nX# iXiXiXiXiXnX0 $ 0 0 nX0 0 0 0 vX",
"vX0 $ vXvXvXvXvX$ vX0 0 # nX0 vX0 0 0 vX0 0 0 0 0 0 0 # 0 0 pXsXo.q $ bX$ $ $ vX0 0 0 $ vXnXq # iXiXq q q nXvX$ 0 0 0 nXnXnXnX0 ",
"0 0 $ vX0 $ $ $ $ vXvX0 0 nX0 vX0 0 0 vX0 0 0 0 0 0 0 0 nX0 MXcXo.MX$ bX$ vX0 0 # # nX0 0 nXnXuXiXq q q q 0 vXvX0 0 q q nX0 # 0 ",
"0 0 0 vX0 $ vX$ vXvX0 nX0 nX0 vX0 0 0 & # # nX0 0 nX0 vX0 0 pXsXo.MX$ $ vXvXvXvX& # 0 0 0 nXpXuXiXMXnXq q q 0 vX0 0 # q 0 0 0 nX",
"vXvX0 0 0 $ vXvX0 vX0 0 0 nX0 0 nXnX0 yX# # nX0 0 q # vXvX0 pXsXo.MXvX$ 0 0 vX$ $ 0 0 0 0 nXMXuXuXq 0 q q nX0 0 # 0 nXq 0 0 0 0 ",
"vXvXvX0 vX$ $ $ $ vX0 0 vX0 vXvX0 # # # nXnX# nX0 q # & # # pXo.o.q vX$ vXvXvX$ $ 0 0 0 0 0 iXuXuXuX# # q # # vX0 0 # nX0 vX0 0 ",
"0 vX$ vXvX$ $ $ vX0 0 0 $ vX$ vXnXuXyX# # # # nX0 nX0 0 uX# pXsXo.q vX$ vXvX0 0 0 0 nX0 0 vX& yXiXuXiXuXuXnX# yX& 0 q iXnXvX0 0 ",
"# 0 vX0 # # 0 nXnXq nXnXnXnX0 0 nXnXq uXq q q nXnXnXnXq iXpXaXo.o.q 0 0 0 0 nXq nXq q nX0 vX0 q pXiXpXpXiXiXiX# # nXq MXq nXq nX",
"w NXpXw NXNXNXNXL.w w L.L.L.NXw NXNXL.NXe kXkXL.L.w w w ..kXsXo.o.L.mXmXmXw w L.L.L.L.L.L.w w NXe sXkXe e NX..NXNXL.L.L.L.w L.L.",
"o.cXe cXe e cXe e e cXo.cXcXcXcXcXcXcXcXcXo.o.o.o.cXe cXo.o.o.o.o.o.e e e e e e e e cXo.o.cXcXcXo.o.o.cXcXcXo.cXcXe e e e e cXo.",
"o.e L.L.w w L.w w L...e ..L...L.L.L.L.L...e cXe cXe L.L.e e e o.o.cXe ..L.L.L.....L.e e cXe e e ..e L.e ..e e e L.w L.L.w w e o.",
"e nXvXvX$ $ $ $ $ vX0 nX0 0 0 vXvXnXvXvX# # iX# 0 0 vX$ 0 nXuXiXNXq # # vX$ $ 0 nX& # # iXiXiXuX0 vXvX0 # # nXnX0 $ vXtX$ $ nXw ",
"L.0 bXbXbXbXbX8 $ $ vX# 0 $ $ bX& vXvXvX0 0 yX0 vXvX$ $ vX# # uXq # vX$ bXbXbX$ vXvX& yXuXuX} yX0 vXvXvX& vX0 0 $ $ $ * bXbX0 w ",
"..nXvX$ vXvXvX$ $ vXvXnX0 $ $ $ # nX# # nX# yX0 vXvXvXvX# # # uXuXnX0 vX$ $ $ # # vX# uXuX} pXuX# 0 vX0 0 0 nX0 $ vX0 vX$ vXq ..",
"e q 0 vX0 vX0 0 vXvX0 nX0 0 $ $ 0 q nXuXq iXyX# vX0 nX0 q # # uXq q nX0 # vXvX# # 0 # # nXpXNXq uXq 0 0 0 0 # 0 vX0 nX0 vX0 q sX",
"e iX0 vXvXvX0 0 0 0 0 0 0 0 0 $ 0 q nXuXpXq # 0 0 vXnX& nXnXuX# q # nX0 vXvX0 nXyX# # uX# iXpXiX# nXvXvX0 vX0 vXvXvX0 0 vX0 q sX",
"..q 0 0 0 0 0 vX0 0 0 0 0 nXnXvX0 iX# uXpXiXiXnX0 0 0 vX# # uXuXiX# nX# & vX& # # 0 nXq iXiXiXpX# nXvX0 0 0 nX0 vXvX0 0 $ 0 q e ",
"..nX0 vXvXvX0 vXvXvX0 0 0 nXnXvX0 pXiX# q iXiXq nXnX0 vX# nXnX# iXq nXnX# & # q nXnXnXq iXiXpXpXq 0 vX0 0 0 q nX0 vX0 vX$ 0 q e ",
"..q 0 vX$ vX# vX$ vX# nXvX0 vX$ 0 q nXq q q iXpXpXnX0 $ 0 0 nXiXq nX0 0 0 $ vXq nX0 q # uXiXpXq # 0 0 0 0 nXq # 0 0 0 0 vX0 q e ",
"e iX# 0 vXvXvXvXvXvX0 nX0 0 $ $ vXiXnXq q q pXiXnXnX0 vX0 # yX# q 0 0 0 0 $ $ # nX0 nX# uXiXiX# q nXvX0 0 0 nX0 0 0 0 nX0 0 q e ",
"..q # # 0 vX$ $ 0 0 0 0 0 0 vX$ vXnX0 nXq nXnXuX0 nXvXvX0 yXyXiX# # 0 0 nXvXvXiXnX0 0 nXpXiXiX# nX0 vXvX$ $ 0 0 0 0 nX0 # 0 q e ",
"L.nX0 0 0 0 0 vXnXnXnX0 0 0 0 0 0 nXnXq q 0 nXq nXnXvXvXvXyXuXq } # nX& # vXvXq q nX0 nXpXpXiXq 0 0 vXvX$ $ 0 0 vX0 0 0 0 0 q e ",
"..nXnX0 0 0 0 vX0 0 nXnX0 0 0 vXvXnXnXpXq 0 nXq nXnXvX$ vX& # # iXuX# # # 0 vX0 # # nXiXpXq q nX0 0 vXvX$ $ vX0 vX$ $ vX$ 0 q e ",
"..nXvX$ 0 # 0 $ $ vX0 0 nXnXnXvX0 nXnXiXiXnXnXq 0 nX0 vXvX0 0 0 iX# yX# # # 0 nX0 # # nXq q q nXnXnX0 0 vX$ vX0 $ $ $ vX$ vXq e ",
"L.0 $ $ 0 0 0 vX$ vXnX0 0 0 0 vX0 q iXiXq q iX# 0 nX# 0 0 0 0 0 # # yXyXyXvX0 nX0 0 uXnXq q nX0 0 0 0 0 vXvX0 vX$ vX$ 0 $ $ q e ",
"L.0 $ $ 0 0 0 vX$ vX# # 0 vXvX& # nXiXiXq q iX# 0 0 nX0 nX# # 0 # nX# # # 0 0 nXnXnXnXyXuXMXnX0 0 0 0 0 0 vX0 $ $ vXvX0 $ vXq e ",
"L.nXvX$ 0 0 0 vX$ 0 nXnXvXvXvX# & nXnXMXq uXnX0 0 0 0 0 0 & # # # 0 0 0 & vX0 q q 0 # # uXq nX0 vXvXvX0 0 vX$ $ $ $ 0 nXvX0 q e ",
"L.0 $ $ 0 0 0 vXvX0 0 nXvX0 0 0 0 # nXq pXiXnX0 nXnX0 vXvX0 0 0 0 vXvXvX& vX0 nXq 0 # nXq q nXnX0 vXvX$ $ $ vX$ $ $ 0 0 & 0 q e ",
"L.nXvX$ vX0 vX$ vX0 0 nX0 nX0 0 0 # & nXq nX0 0 0 0 0 $ vX0 0 0 0 vX$ vX0 vX0 q q nXnX0 q q nX0 vX0 vXvXvX$ 0 0 0 0 0 vX$ vXq e ",
"L.nX& vXvXvX0 $ vXvX# 0 0 0 0 0 vX# # nXnXnX0 0 0 0 $ $ vX$ $ 0 0 $ $ 0 0 vX0 nXq nX0 0 0 0 0 vX$ vXvXvXvXvX0 vX$ $ $ vX$ $ MXe ",
"L.nX0 vXvXvX0 $ $ vX0 vXvX0 0 vXvX0 vXnXiXnX0 nXnXnX$ $ $ $ $ vX0 $ vX0 $ vXvXnXnX# vX0 0 0 nX0 vXvX0 0 0 0 0 vXvX$ $ $ $ vXq e ",
"..nX0 0 0 vX0 0 vX$ vX0 0 nXnX0 vX0 0 nXq nXnXq q nX$ $ $ $ $ $ vX$ $ vX$ $ $ nX# & vXnX0 0 0 0 0 nX0 0 0 0 0 vXvX$ $ vX$ 0 MXe ",
"e nXvX0 vX$ 0 0 vX$ vX0 0 nX0 0 0 nX# uXMXq nXnXnX0 $ $ vXvX$ vX0 vX$ 0 vX$ vXnX0 vXvXnXnXnX0 vX0 nXvX0 0 0 # 0 vX$ $ $ $ 0 mXsX",
"e q nX0 $ $ 0 0 $ $ 0 0 0 q nX0 0 nXnXiXpXiX# nX0 0 $ $ $ vXvXvX0 $ $ 0 0 0 vX0 0 $ vXnXnXnX0 0 0 0 0 0 vXvX0 nX0 vX0 $ $ 0 NXe ",
"e q 0 vXvX$ 0 0 $ vXnXq nXnX0 vX0 0 nXq iX} q nX0 nXvX$ vX0 vXvX0 $ $ 0 0 # # nX0 vXvX0 nX# q 0 0 vX0 0 vX$ $ 0 0 vX0 0 $ 0 pXe ",
"e q nX0 0 $ vXvXvXvX0 q nXnX0 vX0 0 0 nXuXuXiXnX0 nXvX$ $ $ $ $ 0 $ $ 0 0 yXuXpXnXvX$ vXnXq # 0 0 0 vXvXvX$ $ vX0 $ 0 0 $ vXMXe ",
"e q 0 vX0 $ 0 0 vXvX0 nXnXq nX0 nXnX# nXiXuXuXnX0 nXvX$ $ vX$ $ 0 vX0 nX# yX# pXpX0 vX0 0 q # 0 nXnXvX$ $ $ vX0 0 $ $ $ $ vXq e ",
"..nX# $ $ $ 0 0 vX$ 0 nXq iXnX0 nXq nXq nX# uX0 vX0 vX$ $ $ vXvX0 vX0 0 # & # iXuX0 0 nXnXiX# nXnXnX0 $ $ $ vXvX$ $ vXvXvX0 MXe ",
"e nX0 $ vX$ 0 0 vXvXnX# q pXq # nXq nX# # uXuX0 0 nXvX$ 0 0 vXvX0 vX0 0 vXvX# iXuX0 0 nXnXnXnXq nXnX0 vX$ $ $ vXvX0 nX0 # nXmXsX",
"cXq 0 vX0 vX0 0 0 nXq MXq mXMXq q q nXq pXq iXq q nXvXvX0 0 0 0 0 0 nXnX0 nXq mXpXMXiXiXq q q pXpXMXq nX0 0 0 0 nXnXnX0 0 nXw cX",
"o...w MXw mXw w w w L.e e cXe e L.NXL.e e L.sX..L.L.mXMXmXmXmXw w L.L.w w L.NXe e L.L...L.L...L.e e L.L.mXmXw w w w w mXmXw cXo.",
"o.o.e e e o.o.o.e e o.o.o.o.o.o.o.o.o.o.o.o.o.o.o.cXe e e e e e o.o.o.cXcXcXo.o.o.cXcXcXcXcXcXo.o.o.o.o.o.e e e e e e e e cXo.o."
};
