/* XPM */
static char *result[] = {
/* columns rows colors chars-per-pixel */
"64 64 256 2 ",
"   c black",
".  c #0000A8",
"X  c #00A800",
"o  c #00A8A8",
"O  c #A80000",
"+  c #A800A8",
"@  c #A85400",
"#  c #4C4436",
"$  c gray33",
"%  c #5454FC",
"&  c #524A42",
"*  c #5E5246",
"=  c #736352",
"-  c #685D4C",
";  c #FCFC54",
":  c gray99",
">  c #ECECEC",
",  c gainsboro",
"<  c #D0D0D0",
"1  c #C0C0C0",
"2  c #B4B4B4",
"3  c gray66",
"4  c #989898",
"5  c gray55",
"6  c #7C7C7C",
"7  c gray44",
"8  c #646464",
"9  c gray33",
"0  c #484848",
"q  c gray22",
"w  c #2C2C2C",
"e  c #202020",
"r  c #FC0000",
"t  c #EC0000",
"y  c #E00000",
"u  c #D40000",
"i  c #C80000",
"p  c #BC0000",
"a  c #B00000",
"s  c #A40000",
"d  c #980000",
"f  c #880000",
"g  c #7C0000",
"h  c #700000",
"j  c #640000",
"k  c #580000",
"l  c #4C0000",
"z  c #400000",
"x  c #FCD8D8",
"c  c #FCB8B8",
"v  c #FC9C9C",
"b  c #FC7C7C",
"n  c #FC5C5C",
"m  c #FC4040",
"M  c #FC2020",
"N  c #FC0000",
"B  c #FCA85C",
"V  c #FC9840",
"C  c #FC8820",
"Z  c #FC7800",
"A  c #E46C00",
"S  c #CC6000",
"D  c #B45400",
"F  c #9C4C00",
"G  c #FCFCD8",
"H  c #FCFCB8",
"J  c #FCFC9C",
"K  c #FCFC7C",
"L  c #FCF85C",
"P  c #FCF440",
"I  c #FCF420",
"U  c #FCF400",
"Y  c #E4D800",
"T  c #CCC400",
"R  c #B4AC00",
"E  c #9C9C00",
"W  c #848400",
"Q  c #706C00",
"!  c #585400",
"~  c #404000",
"^  c #849C7B",
"/  c #738C6B",
"(  c #6B7B63",
")  c #637352",
"_  c #5A6B52",
"`  c #525A4A",
"'  c #4A5242",
"]  c #425239",
"[  c #394A39",
"{  c #313931",
"}  c #313929",
"|  c #293129",
" . c #293121",
".. c #212921",
"X. c #182118",
"o. c #181818",
"O. c #00FC00",
"+. c #00EC00",
"@. c #00E000",
"#. c #00D400",
"$. c #04C800",
"%. c #04BC00",
"&. c #04B000",
"*. c #04A400",
"=. c #049800",
"-. c #048800",
";. c #047C00",
":. c #047000",
">. c #046400",
",. c #045800",
"<. c #044C00",
"1. c #044000",
"2. c #C8BFB2",
"3. c #A89A85",
"4. c #9A8C77",
"5. c #7CFCF8",
"6. c #5CFCFC",
"7. c #40FCFC",
"8. c #20FCFC",
"9. c #00FCFC",
"0. c #00E4E4",
"q. c #00CCCC",
"w. c #00B4B4",
"e. c #009C9C",
"r. c #008484",
"t. c #007070",
"y. c #005858",
"u. c #004040",
"i. c #94846B",
"p. c #8C7B67",
"a. c #847B63",
"s. c #81735D",
"d. c #7B6B5A",
"f. c #007CCC",
"g. c #006CB4",
"h. c #005C9C",
"j. c #736B5A",
"k. c #736B52",
"l. c #9C9CFC",
"z. c #7C80FC",
"x. c #5C60FC",
"c. c #4040FC",
"v. c #2024FC",
"b. c #0004FC",
"n. c #0000FC",
"m. c #0000EC",
"M. c #0000E0",
"N. c #0000D4",
"B. c #0000C8",
"V. c #0000BC",
"C. c #0000B0",
"Z. c #0000A4",
"A. c #000098",
"S. c #000088",
"D. c #00007C",
"F. c #000070",
"G. c #000064",
"H. c #000058",
"J. c #00004C",
"K. c #000040",
"L. c #282828",
"P. c #FCE034",
"I. c #FCD424",
"U. c #FCCC18",
"Y. c #FCC008",
"T. c #FCB400",
"R. c #B420FC",
"E. c #A800FC",
"W. c #9800E4",
"Q. c #8000CC",
"!. c #7400B4",
"~. c #60009C",
"^. c #500084",
"/. c #440070",
"(. c #340058",
"). c #280040",
"_. c #FCD8FC",
"`. c #FCB8FC",
"'. c #FC9CFC",
"]. c #FC7CFC",
"[. c #FC5CFC",
"{. c #FC40FC",
"}. c #FC20FC",
"|. c #FC00FC",
" X c #E000E4",
".X c #C800CC",
"XX c #B400B4",
"oX c #9C009C",
"OX c #840084",
"+X c #6C0070",
"@X c #580058",
"#X c #400040",
"$X c #FCE8DC",
"%X c #FCE0D0",
"&X c #FCD8C4",
"*X c #FCD4BC",
"=X c #FCCCB0",
"-X c #FCC4A4",
";X c #FCBC9C",
":X c #FCB890",
">X c #FCB080",
",X c #FCA470",
"<X c #FC9C60",
"1X c #F0945C",
"2X c #E88C58",
"3X c #DC8854",
"4X c #D08050",
"5X c #C87C4C",
"6X c #BC7848",
"7X c #B47044",
"8X c #A86840",
"9X c #A0643C",
"0X c #9C6038",
"qX c #905C34",
"wX c #885830",
"eX c #80502C",
"rX c #744C28",
"tX c #6C4824",
"yX c #5C4020",
"uX c #543C1C",
"iX c #483818",
"pX c #403018",
"aX c #382C14",
"sX c #28200C",
"dX c #600064",
"fX c #006464",
"gX c #006060",
"hX c #00001C",
"jX c #00002C",
"kX c #302410",
"lX c #480048",
"zX c #500050",
"xX c #000034",
"cX c gray11",
"vX c #4C4C4C",
"bX c gray36",
"nX c gray25",
"mX c gray19",
"MX c #343434",
"NX c #2E2B22",
"BX c #B8E8E8",
"VX c #9CDCDC",
"CX c #74C8C8",
"ZX c #48C0C0",
"AX c #20B4B4",
"SX c #20B0B0",
"DX c #00A4A4",
"FX c #009898",
"GX c #008C8C",
"HX c #008484",
"JX c #007C7C",
"KX c #007878",
"LX c #007474",
"PX c #007070",
"IX c #006C6C",
"UX c #980088",
/* pixels */
"        o.o.o.o.                                                    o.                                                          ",
"  kXNX} NXkXw } } NXNXNXkXkXe e kXkX} } NXNX} } } NX} } kXkXNX} NXkX} NXNX{ NXNXNXNXNXNXNX{ NXNXNXNXNXNX} { NXNX{ { NXNX{ NXcX  ",
"o.NXNXNXNXNXNXNXNXNXNXNX} NXNX} NX} NXNXNXNXNXNX} } } } NXNX} NX} } } } } NXNXNXNXNXNXNX{ } NXNX{ { NXNX} { NXNXNXNXNXNXNX{ cX  ",
"o.NXNX} } NXNXNXNXNXNX} } kXNXNX} } NXNXNXNXNXNXkXNXkXkX} } NX} } } NXNXNXNXNXNX} } NXNX} } NXNXNXNXNXkX} { } { q } { mXq { e   ",
"o.NXNX} } NXNXNXNXNXNXNX} NXNXNX} } NXNXNXNXNXNXNX} kXNX} } NX} } } NXNXNXNXNXNX} } mXNX} } NXkXNX} NXNXNX} NX} } } { { { { e   ",
"o.} NXNXNXNXNX} NXNXkXkX} kXNX} kXNX} NXNXNXNXkXkXNXNXNXkXkXNXNXNXkX} NXNXNXNX} NXNX} mXNXNXNXNXNX} } NXkX} NXNX} NX{ { } NXcX  ",
"  NXNXNXw NXNX} kXNXNXkXkXkXNX} NXNX} NXNXNX} NXNXkXNXNXkXkXNXNXNXkX} kXkXkXNXNXNXNX} } NXNXNX} NXNXNXNX} } NXNXNX} { { } w cX  ",
"  } } NXNXNXNXNXNXNXkXNX} } NXNXNXNXNXNX} } kX} NX} NXNXNXNXNX} NXNX} NX} NXNXNXNX} NXNXNXNXNXNX} } NXNX} } } NX} } } mXmX} cX  ",
"  } } NXNXNXNXNXNXNXNXNXNX} NXNXkXNXkXkXNX} kXNXNX} NXkXkXNX} NXNXNXNX} NXNX} NX} } NXNXNX} } } { NXNX} NXNXNXNX} NXNX{ { } cX  ",
"  } NXNXNXNXNXNXNXNXNXNXNXNXNXkXkXkXNXNXkXNX} NXkXkXNXkXkXNXNX} NXNX} } NXkXNXNXNXNXNXNX} } } NX} NXNXNX} NX} NXNXNX} { } mXcX  ",
"  NXNXNXNXNX} } NXNXNXNXNXNXNXkXNXkXNX} kXNXNXNXkXNXkXkXkXNXNX} NXNX} } NXNXNX} NXNX} NX} } } NXNXNXNXNXNXNXNXNXNXNXNXNX} mXe   ",
"  } NXNX} NX} NX} NX} NX} NXNXNX} } NXNX} NX} kXNXNXkXNXkXkXkXNXNXNXNX} NXNXNXNX} } } } NXNXNXNXNXNXNXNXNXNXNXNXNX} } } { } cX  ",
"  } NXNX} NX} NX} NX} NXNXNXNX} NXNXkXNXNX} NXNXNXNXkXkXkXkXNXkXNXNXNXkXNXw NXNXNXNX} NXNXNXNXNX} } NXNX} NXNXNX} } } NX{ } cX  ",
"  NXNXNXNXkXmXNXkXkXNXkX} NXNXkX} kXNXNX} NXNXNXkXNXkX} kXkXNXNXkXkXNXkXkXkX} kXNXkX{ NXNXNXNX} NXNXNXNX} kX} } } NX} } NXNXe   ",
"  NXNXNXkXkXNXNXkXNXNXNXNX} NXNXkXkXNXNXNXkXNXNXkXNXNXNXkXkXNXNXkXkXNXNXkXNXNXNXNXNXNXNX} } NXNXNXNX} } } } } } NXNXNXNX} NXe   ",
"  } NXNXNXNXw } } NXNXNXNXNX} kXNXNXNXNX} } NXNX} NXNXNXNXNXNXNXNX} NXNXNXw NXNXNXNXNXkXNXNXNXNX} NX} NXNXNXNXNX} NX} } { NXe   ",
"  NXNXNX} NXNXkX} NXNXNXNXNXNXNXNXNX} NXNXNXNXNXNXNX} NXNXNXNXNXNX} } NXkXkXNXNX} NXNXkX{ mXNXNXNX} NXNXNXNXNXNX} NXNX} } NXe   ",
"  kXNXNXNXNXNXNXNX} NX} kXNXNXNX} } NXNXNXkXNXkXkXkX} NXkXkXNXkXNXNXNXNXkXNX} NXkX} } kXNXNXNX} kXNX} } kXNXNXNXNXNXNXkX} w kX  ",
"  kXNXNXNXNXNXNXNXNX} NXkXNXNXNXkXNX} NXNXNXNXkXkXkXNXNXkXkXNXkXNXNXNXNXNXNX} NX} NXNXw NXNX} NX} NXNXNX} NX} NXNX} } NX} NXe   ",
"  NXNXNXNXNXNXNXNX} NXNX} NXNXkXkX} NXNX} NXNXNXNXNXNXNXw NXNXNXNXNXNXNX} mXw NXNXNXNXNXNX{ } NX} { NXNXNX{ NX} } } NXNX} NXe   ",
"  NXNXNXNXNXNXNXNXNX} NX} } NXNXNX} NXNXNXNXNXNX} NXNXNXNXNXNXNXNX} NXNX} mXNXNXNXNXNXNXNXNXNXNX} } } NXNX} NXNX} } NX} } NXkX  ",
"  NXNXNXNXkXNXNXNXNX} } NXNX} NXNXNXNXNXkX} NXNXNXkX} NXNXNXkXkXNXkX} } NXNXmXmXNXNXNXw } } } NX} NXNX} } { NXNXNXNX} } } NXkX  ",
"  } NXNXkXkXNXNXNXNXNX} } NX} NXNXNXNXNXNXNX} NX} } NXNXNXNXNXNXNX} } mXNXNXmXmXNXNXNXw NX} NXNXNXNXNX} NXNX} } } NX} NX} NXe   ",
"  NXkXNX} } kXNXNXNX} NX} mXNXNX} } NXNXNXNXNXNXNX} NXNXw NXNXNXNXmX} } NXmXNX} w w NXNXNXNXkX} NXNXNXNXNXNX} } } NX} NX} NXe   ",
"  NXNXNX} } NXNXNXNXNXNX} } NXNXNX} NXNX} } NXNX} NXNXNXNXNXNXNXNXNXNX} mX} NX} mX} NX{ NXNXNXNXNXNXNXNXNX} NX} { { } } { } kX  ",
"  } NXNXNXkX} NX} NX} NXNXNXNXNX} NXNXNXNX} NX} NXkXNXNXkXkXNX} kXkXNXNX{ } mXmXNXNXmX{ NXNX} NXNXNX} NX{ NX} } } } } NX} } cX  ",
"  } NXNXNXNX} NXNXNX} NXNXNXNXNXNXNXNXNXNXNXNXNXkXkXNXNXkXkX} NXNXNXNX} } } } NXNXmXmXNXkXkXNXNXNX} NXNX} NXNXNXNX} } NX} } e   ",
"  NXNXNXNXNXNXNXNXNXNXNX} } NXNXNX} NXNX} } NXNX} } NXNXNXNX} } } NXNXNXw NXkX{ NXq } NX} NX} NXNX{ kXkX} } NXNXNX} { } } } cX  ",
"  NXNXNX} } NXNXNX} } NX} } } NX} } } } } } NX} } NXNXNXNXNX} } } } } NXNXNXNXNXNX} NXNX} NX} } { } kX} } } NXNX} } } } } } e   ",
"  kX} NXNX} NXNXNXNXNXNXNXNX} NXNXNXNXNXNXNXNX} } NXNX} NXNX} } } } NX} NX} } NXNXNXNXNXNXNXmX{ } { NXNXNXNX} } NX} } } { } kX  ",
"  kXNXNXNXNX} } NXNX} } NXNX} NXNX} } NX} NXNX} NXNXNX} NXNXNXNX} NXNX} kXNX} NXNXNXNX} NXNXNXNXNXNX{ NX} } NXNX} } } } } { } o.",
"  NXNXNX} } NXNX} } NX} } } NXNX} } } NXNX} } } } } kXkX} } NXNX} } NX} } NXNXkXNXNXNX} NXNXkXNX} } } } NX} } } { } } } NXNX}   ",
"o.NXNXNX} } } NX} } NX} } } } NX} } } NX} } } } NX} kX} } NXNXNXNX} NXNXNXNXNXkXNX} NXNXNXNXNXNX} } } NXNX{ NXNX{ } } { } } kX  ",
"  kX} NXkXNX} } NX} } } NXNX} } } } NXNX} NXNX} NXNXNX} } NXNXNXNXNXNXNXkX} } } NXNXNXNXNX} } } } NXNX} NXNXNX{ } NX{ NXNXNXe   ",
"  NX{ NXNXNX} } NXNX} } NXNX} } } } } } } } NXNXNXNX} } } NX} NXNXNXNXNX} } } } NX} NXNXNX} } } } } NX{ kX} { } } NX{ } } NXe   ",
"  } } NXNXNXNXNX} } } } } } } } } } NX} } } NXNX} NX{ } } } } NXNXNX} NXNX} kXNX} { } } NXNXNX} kXNXNX} NXNX{ NX{ { } } } NXkX  ",
"  } } NXNX} NXNXNXNXNXNX} NXNXNX} } NX} { } NX} { NX{ NXNX} } NX} NX} } NXNXNXNX} } } } NXNXNX} NXNXNX} } NXNX} { } } } { } kX  ",
"  NX} } NXNX} } } NX} } NX} NXNX} } } } } } } { } NX} } NXNX} NXNXNX} } NX} NX} NXNXNX} NX} } NX} NX{ } { { { { { NX} } { NXw   ",
"  NX} } } NXNX} } } } NXkX} NX} } } } } } } } } } } } } } NXNXNXNXNXNXNX} } } NX} } NXNX} NXNXNX} NX{ { NX{ { NX} } NX} } mXw   ",
"  NX} } } } NXNX} } NXNXNXNXNXNX} } } NX} } } } } } } } } } } } } } NX{ } } } } NXNXNX} } NX} } NXmXmX} } } mXNXnXq } } NXNXkX  ",
"  } } NXNX} NXNX} } NXNX} } NXNX} } } } NX{ NX} } } } } } } } } { { } } } } } } NX} } } NX} } NX} } mX} q NXmX{ { NX} NXNXNXkX  ",
"  } } } } NX} } NXNX} } NXNX} } NXNX} } } } NX} } } NXNX{ } NX{ } } { } { { { NXNXNXNX} NXNX} NX} } mXmX} mXNXq } } } NXNX} kX  ",
"  } } } } } } } NXNX} NXkXNXNX} NXNX} } } } NX} } } } } { NX{ { } } { NX} } { } NXNXNXNXkXNXNXNX} } } } { NXq } NXNXNX} } } kX  ",
"  } NXNX} } } NX} } NXNX} } NX} } } } NX} } } } } } NXNX{ } NX} } } } } nXq mX} } } NXNXNXNXNXNXq NX} } NX{ { NXNX} NX} { { }   ",
"  NXNX} } } NXNX} NXNXNX} NX} } } } } NX} } } } NX} NXNX{ { NX} } mX{ } { q mX} } } NXNXNXNX} } NXNX} { { { } NXNX} } } } { kX  ",
"  e } } NXNXNX} NXNX} NXNXNX} } } NX} } NXNX} } { } } } } } } mXNXNX{ mXNX{ NX} NX} NXNXNXNX} } NX{ { { } } } } NX} } } { } e   ",
"  kX} } NXNXNX} NXNXNXNXNXNX} } } NXNX} } NX} NX} NX} } NX{ } } NX{ { { NX{ NXNX} } NXNXNXkXNXNXNXNX} } } } } NXNX} } } NXNX}   ",
"  kX} NXmX} NXNX} NXNXNX} } } NX} } } } { NX{ { } } NXNX{ { } } } { NX{ NX{ NXNX} NXkXNXNXNXNX} } } } } } } } NXNXNX} } NXNX .  ",
"  NX} } } } } } } } } NX} } } NX} } } } } } } } { { NXNX} { NXNXmX} } } mXmXNXNXNX} NXNX} } } NX} NX} } { } } NX{ } } } } NXe   ",
"  NXNX} } } NX} NXNXNX} NXNXNX} NXNXNXNXNXNXNX} NXNXNXNXNX} { NXNXNXNXNXNX{ NXNXNXNXNXNXNXNXNXNXNX} NX} } NX{ NX} } { NXNX} kX  ",
"  kXNX} NX} { NXNXNXNX} NXNXNX} NXNXNXNX} } } } NXNXNX} NXNX} } NXNXNXNX} NXNXNXNXNXNXNXNXNXNXNXNX} } { } NX{ { NXNXNXNXNX{ kX  ",
"  NXNXNX} } } NX} } NX} } } } } } } } } NXNX} } NX} NX} NXNXNXNXNXNXNXNXmX} NXNXNXNXNXkXNXNXNX} } } NX{ NX} } } { } } } { NXkX  ",
"  NXNXNX{ } NX} } } } } } } } NX} } } } NXNX} } NXNX} } NXNXNXNX} NXNXNXNXNXNXNXNXNXNX} NXNXNXNX} } NX} NX} NX} { } } } { } kX  ",
"  kXmXNX} } } } } NX} } NX} } } NX} NX{ { } { { } } } } NXNX{ NXNXNX} NXNXNXkXNXNXNX} NXNXkXNXNXNXNXmXmX} NX} { NX} { { } { NX  ",
"  e } { } } NX} } NXNX} NX} { { } } { { } } { { } NXNXNXNXNXNXNXNXkXNXNX} } kXNXNXkXNXNXkXkX} } } } NXNX} NX{ } } } } { } { kX  ",
"  w NX} } } } { { } NX} } } { NX{ { NX} { { { { NX} NXNXNX} } } } NXNX} } NXNXNXNXNXNX} NXw NXNX} } NXNX} } } } NX{ } { { } kX  ",
"  w NX{ { { { { } } } } { } { NXNX{ } } { { } NXNX} NXNXNX} } NXNXNXkXNXNXNX} kXNXNXNX} w } NXNX} } NXNX} } NX} { NX{ { } } NX  ",
"  w } { { { NX{ } NX{ { { } } } } } { { { { NXNX} } NXNXNXNXmXNXNXNXNXNX} } NX} NXkXNXNX} } NXNXNX} NXNX{ NX} { NX} } { } { NXo.",
"  kX} } } q NX} { NX{ NX} } } } NX} nX{ { { { } } } NXNXNXNXNXNXNXNXNXNX} } NX} } } NX} } NXNX} kXkXNXNX} NX{ } } } } { } { NXo.",
"  NX} } NXq } mXNXq { NX} { { { { { NX} } } { { } } } } NXNXNX} NX} } NXmXNXNX} } NX} } NXNXkXkXNX} NXNXNX} NXNX{ } NX} NX} NXo.",
"  mX} } } } } mXNXNX{ { } } { { } { { { mX} { } } { { { { { NX} mXmX} } NXNX} } } NX} NXNX} } NX} } NXNX} } NX} { { } { { } NXo.",
"  e { { } { { { } { NX{ { } { { NX} { } } } } } { { } } NX} mX{ } } } } } } NXNX .e } } } } NXNXNXNXmXNXNXNXNXNX} } { } } { NX  ",
"  cXmXw mX} w w mXNX} } w w kXw e w  . .NX} w } NXNX} } } w w w } w e e w e e e cXkXe cXe e e e e e kXkXNXw e kXNXNXkXkXkXkXkX  ",
"                                                            o.                                                    o.o.o.o.      "
};
